<?xml version="1.0" encoding="utf-8"?>
<!-- Generator: Adobe Illustrator 21.0.0, SVG Export Plug-In . SVG Version: 6.00 Build 0)  -->
<svg version="1.2" baseProfile="tiny" id="Calque_1"
	 xmlns="http://www.w3.org/2000/svg" xmlns:xlink="http://www.w3.org/1999/xlink" x="0px" y="0px" viewBox="0 0 221.4 146.8"
	 xml:space="preserve">
<g>
	<path fill="none" d="M83.1,134.5c2,0.4,3.7,0.5,5.2,0.5c2.5,0,4.3-0.7,5.3-2.1c1-1.4,1.5-3.8,1.5-7.1c0-3.3-0.4-5.6-1.3-7
		c-0.9-1.4-2.2-2.1-4-2.1c-1,0-2,0.2-3.1,0.5c-1.1,0.3-2,0.7-2.6,1l-1,0.5V134.5z"/>
	<path fill="none" d="M36.2,116.7c-2.1,0-3.7,0.6-4.8,1.9c-1.1,1.3-1.6,3.3-1.6,6.2h12.5c0-2.9-0.5-5-1.4-6.2
		C39.8,117.3,38.3,116.7,36.2,116.7z"/>
	<path fill="none" d="M36.4,77.1c-1.6-0.7-3.2-1.1-5-1.4c-1.8-0.2-4-0.3-6.6-0.3c-5.2,0-9,0.7-11.3,2c-2.3,1.3-3.5,4-3.5,8.1v8H41
		v-8C41,81.3,39.5,78.5,36.4,77.1z"/>
	<path fill="none" d="M18.8,117.3c-2.4-0.4-4.2-0.5-5.5-0.5c-2.5,0-4.2,0.8-5.2,2.3c-1,1.5-1.4,3.9-1.4,7.1c0,3.8,0.6,6.2,1.7,7.4
		c0.6,0.6,1.1,0.9,1.7,1.1c0.5,0.2,1.3,0.3,2.1,0.3c0.9,0,1.9-0.2,3-0.5c1.1-0.3,2-0.6,2.7-0.9l0.9-0.5V117.3z"/>
	<path fill="none" d="M20.6,48.6c0,2.4,0.7,4.1,2,5.1c1.3,1.1,3.5,1.6,6.4,1.7V42.1c-3.1,0-5.3,0.5-6.5,1.5
		C21.3,44.6,20.6,46.2,20.6,48.6z"/>
	<path fill="none" d="M126.3,135c2.7,0,4.5-0.7,5.3-2c0.8-1.4,1.2-3.8,1.2-7.2c0-3.5-0.5-5.8-1.4-7.1c-0.9-1.3-2.6-1.9-5.1-1.9
		c-2.5,0-4.2,0.6-5.1,1.9c-0.9,1.3-1.4,3.6-1.4,7.1s0.4,5.9,1.2,7.2C121.8,134.3,123.6,135,126.3,135z"/>
	<polygon fill="none" points="139.4,76.3 139.4,24.1 90.5,76.3 	"/>
	<path d="M21.5,136.9V105h-2.6v9.9c-2.4-0.4-4.3-0.6-5.6-0.6c-3.4,0-5.7,1-7.2,2.9c-1.4,1.9-2.1,5.1-2.1,9.4c0,4.4,0.8,7.3,2.5,8.8
		c0.8,0.7,1.6,1.2,2.4,1.5c0.8,0.2,1.7,0.4,2.8,0.4c2.4,0,4.7-0.7,7.1-2.1v1.6H21.5z M17.9,133.5c-0.6,0.3-1.5,0.6-2.7,0.9
		c-1.1,0.3-2.1,0.5-3,0.5c-0.9,0-1.6-0.1-2.1-0.3c-0.5-0.2-1.1-0.6-1.7-1.1c-1.1-1.2-1.7-3.6-1.7-7.4c0-3.2,0.5-5.6,1.4-7.1
		c1-1.5,2.7-2.3,5.2-2.3c1.3,0,3.1,0.2,5.5,0.5v15.8L17.9,133.5z"/>
	<path d="M44.9,124.8c0-3.6-0.7-6.3-2.2-8c-1.4-1.7-3.6-2.5-6.5-2.5c-6.1,0-9.1,3.9-9.1,11.6c0,3.9,0.6,6.7,1.9,8.6
		c1.3,1.9,3.5,2.8,6.7,2.8c2.3,0,5.1-0.2,8.4-0.6l-0.1-2.2l-1.3,0.1c-2.2,0.2-4.5,0.3-6.7,0.3c-2.3,0-3.8-0.7-4.8-2
		c-0.9-1.3-1.4-3.3-1.4-6h15L44.9,124.8z M29.8,124.8c0-2.8,0.5-4.9,1.6-6.2c1.1-1.3,2.7-1.9,4.8-1.9c2.1,0,3.6,0.6,4.6,1.9
		c1,1.2,1.4,3.3,1.4,6.2H29.8z"/>
	<path d="M57,116.8c1.9,0,4.5,0.2,7.6,0.7l0.1-2.3l-1.2-0.2c-2.6-0.4-4.9-0.6-6.6-0.6c-2.2,0-4.1,0.5-5.6,1.5
		c-1.5,1-2.3,2.5-2.3,4.6c0,2.1,0.5,3.6,1.6,4.3c1.1,0.8,3,1.4,5.6,1.8c2.7,0.4,4.4,0.9,5.2,1.3c0.8,0.5,1.2,1.5,1.2,2.9
		c0,1.5-0.5,2.5-1.5,3.1c-1,0.6-2.4,0.9-4.1,0.9c-1.8,0-4.3-0.2-7.6-0.8l-0.2,2.3l1.3,0.2c2.6,0.4,4.7,0.6,6.3,0.6
		c2.8,0,4.9-0.5,6.4-1.6c1.4-1,2.2-2.7,2.2-4.9c0-2.3-0.6-3.8-1.7-4.6c-1.1-0.8-3-1.4-5.7-1.9c-2.7-0.5-4.4-0.9-5.2-1.4
		c-0.8-0.5-1.1-1.3-1.1-2.4C51.7,118.1,53.5,116.8,57,116.8z"/>
	<path d="M80.5,114.8v32h2.6v-10.1c1.7,0.4,3.5,0.6,5.3,0.6c3.4,0,5.9-0.9,7.3-2.7c1.5-1.8,2.2-4.7,2.2-8.8c0-4-0.6-7-1.9-8.8
		c-1.3-1.8-3.1-2.7-5.7-2.7c-2.5,0-5,0.7-7.3,2.1v-1.7H80.5z M84.1,118.3c0.6-0.4,1.5-0.7,2.6-1c1.1-0.3,2.2-0.5,3.1-0.5
		c1.8,0,3.1,0.7,4,2.1c0.9,1.4,1.3,3.7,1.3,7c0,3.3-0.5,5.6-1.5,7.1c-1,1.4-2.8,2.1-5.3,2.1c-1.5,0-3.2-0.2-5.2-0.5v-15.7
		L84.1,118.3z"/>
	<path d="M103.6,114.8v22.1h2.6v-16.6l1.1-0.7c0.8-0.4,1.8-0.9,3.2-1.4c1.4-0.5,2.7-1,4-1.2v-2.7c-1.3,0.2-2.8,0.7-4.3,1.4
		c-1.6,0.7-2.9,1.4-4,2.2v-3.2H103.6z"/>
	<path d="M126.3,137.3c3.6,0,6-0.9,7.3-2.7c1.3-1.8,1.9-4.7,1.9-8.9c0-4.1-0.7-7.1-2.1-8.8c-1.4-1.7-3.8-2.6-7.2-2.6
		c-3.4,0-5.8,0.9-7.2,2.6c-1.4,1.7-2.1,4.7-2.1,8.8c0,4.2,0.6,7.1,1.9,8.9C120.3,136.5,122.7,137.3,126.3,137.3z M121.2,118.6
		c0.9-1.3,2.6-1.9,5.1-1.9c2.5,0,4.2,0.6,5.1,1.9c0.9,1.3,1.4,3.6,1.4,7.1c0,3.5-0.4,5.9-1.2,7.2c-0.8,1.4-2.6,2-5.3,2
		c-2.7,0-4.5-0.7-5.3-2c-0.8-1.3-1.2-3.8-1.2-7.2S120.2,119.9,121.2,118.6z"/>
	<path fill="#99CC00" d="M221.4,50.2c0-27.7-22.5-50.2-50.2-50.2h-31.8v24.1l0,0v52.2h0l0,0v0l24.1-25.7V24.1h7.6
		c14.4,0,26.1,11.7,26.1,26.1s-11.7,26.1-26.1,26.1h-7.6l0-14.1L139,88.4l24.5,26.2v-14.1h7.6c27.7,0,50.2-22.5,50.2-50.2V50.2z"/>
	<polygon fill="#00AACD" points="139.4,76.3 90.5,76.3 139.4,24.1 139.4,24.1 139.4,0 57.5,0 68.8,12.1 57.5,24.1 106.4,24.1 
		57.5,76.3 57.5,100.4 139.4,100.4 128.1,88.4 139.4,76.3 139.4,76.3 	"/>
	<path d="M47.2,85.5c0-6.9-2-11.6-6.1-14c-2.1-1.2-4.4-2.1-6.9-2.6c-2.5-0.5-5.7-0.7-9.3-0.7c-7.2,0-12.5,1.2-15.8,3.7
		c-3.4,2.4-5,7-5,13.6v15h43.2V85.5z M41,93.4H10.1v-8c0-4.1,1.2-6.8,3.5-8.1c2.3-1.3,6.1-2,11.3-2c2.6,0,4.8,0.1,6.6,0.3
		c1.8,0.2,3.4,0.7,5,1.4c3.1,1.4,4.6,4.2,4.6,8.3V93.4z"/>
	<path d="M46.5,36.4l-5.1,0.1l0.2,1.8c0.3,3.2,0.4,6.2,0.4,9.2c0,3-0.6,5-1.8,6.1c-1.2,1.1-3.1,1.7-5.7,1.7V35.8l-4.9-0.4
		c-9.6,0-14.5,4.4-14.5,13.3c0,9.1,5.6,13.7,16.8,13.7c5.6,0,9.7-1,12.3-3.1c2.6-2,3.9-5.4,3.9-10.1C47.9,45.5,47.4,41.2,46.5,36.4z
		 M29,55.4c-3,0-5.1-0.6-6.4-1.7c-1.3-1.1-2-2.8-2-5.1c0-2.4,0.6-4,1.9-5c1.2-1,3.4-1.5,6.5-1.5V55.4z"/>
	<polygon points="10.9,55.6 5.9,40.2 0,42.4 6.4,57.3 	"/>
	<rect x="3" y="0" width="7.3" height="6.9"/>
	<polygon points="15.7,6.9 47.2,6.9 40.8,0 15.7,0 	"/>
	<path d="M2.5,11.6l-0.6,6.8c0,3.3,0.8,5.6,2.5,6.9c1.7,1.3,4.8,2,9.3,2h2v3.7h5.9v-3.7l19.3,0l6.4-6.8H21.5v-8.3h-5.9v8.3h-2
		c-2.2,0-3.7-0.3-4.5-0.8C8.4,19.1,8,18.1,8,16.8c0-1.4,0-3.1,0.1-5.1L2.5,11.6z"/>
	<path d="M147.9,116.8c1.9,0,4.4,0.2,7.6,0.7l-2.5-2.7c-2-0.2-3.7-0.4-5.1-0.4c-2.2,0-4.1,0.5-5.6,1.5c-1.5,1-2.3,2.5-2.3,4.6
		c0,2.1,0.5,3.6,1.6,4.3c1.1,0.8,3,1.4,5.6,1.8c2.7,0.4,4.4,0.9,5.2,1.3c0.8,0.5,1.2,1.5,1.2,2.9c0,1.5-0.5,2.5-1.5,3.1
		c-1,0.6-2.4,0.9-4.1,0.9c-1.8,0-4.3-0.2-7.6-0.8l-0.2,2.3l1.3,0.2c2.6,0.4,4.7,0.6,6.3,0.6c2.8,0,4.9-0.5,6.4-1.6
		c1.4-1,2.2-2.7,2.2-4.9c0-2.3-0.6-3.8-1.7-4.6c-1.1-0.8-3-1.4-5.7-1.9c-2.7-0.5-4.4-0.9-5.2-1.4c-0.8-0.5-1.1-1.3-1.1-2.4
		C142.7,118.1,144.4,116.8,147.9,116.8z"/>
</g>
</svg>
